<svg xmlns="http://www.w3.org/2000/svg" viewBox="0 0 1200 1010" font-family="-apple-system, BlinkMacSystemFont, 'Segoe UI', Helvetica, Arial, sans-serif">
  <defs>
    <style type="text/css"><![CDATA[
      @import url('https://fonts.googleapis.com/css2?family=IBM+Plex+Mono:wght@500;600;700;800&display=swap');
      .display {
        font-family: 'IBM Plex Mono', ui-monospace, 'SF Mono', Menlo, monospace;
        letter-spacing: 0.04em;
      }
    ]]></style>
    <marker id="arrow" viewBox="0 0 10 10" refX="9" refY="5" markerWidth="7" markerHeight="7" orient="auto">
      <path d="M0 0 L10 5 L0 10 z" fill="#27272A"/>
    </marker>
  </defs>

  <rect width="1200" height="1010" fill="#FFFFFF"/>

  <!-- Title: mirage icon (cube) + "mirage" wordmark in diagram font -->
  <svg x="407" y="4" width="96" height="110" viewBox="16 7 128 146">
    <polygon points="19,45 80,10 80,45 50,63" fill="#000000" stroke="#ffffff" stroke-width="2.5"/>
    <polygon points="80,10 141,45 110,63 80,45" fill="#000000" stroke="#ffffff" stroke-width="2.5"/>
    <polygon points="141,45 141,115 110,98 110,63" fill="#000000" stroke="#ffffff" stroke-width="2.5"/>
    <polygon points="141,115 80,150 80,115 110,98" fill="#000000" stroke="#ffffff" stroke-width="2.5"/>
    <polygon points="80,150 19,115 50,98 80,115" fill="#000000" stroke="#ffffff" stroke-width="2.5"/>
    <polygon points="19,115 19,45 50,63 50,98" fill="#000000" stroke="#ffffff" stroke-width="2.5"/>
    <polygon points="80,45 110,63 110,98 80,115 50,98 50,63" fill="#000000" stroke="#ffffff" stroke-width="2.5"/>
    <line x1="80" y1="80" x2="50" y2="63" stroke="#ffffff" stroke-width="2.5"/>
    <line x1="80" y1="80" x2="110" y2="63" stroke="#ffffff" stroke-width="2.5"/>
    <line x1="80" y1="80" x2="80" y2="115" stroke="#ffffff" stroke-width="2.5"/>
  </svg>
  <text x="515" y="84" fill="#000000" font-family="Avenir Next, Helvetica Neue, Arial, sans-serif" font-size="72" font-weight="700" letter-spacing="-1">mirage</text>
  <text x="600" y="140" text-anchor="middle" fill="#000000" font-family="Avenir Next, Helvetica Neue, Arial, sans-serif" font-size="22" font-weight="500" letter-spacing="0.4">A Unified Virtual Filesystem for AI Agents</text>

  <!-- ===================== LAYER 1: AGENT ===================== -->
  <rect x="20" y="160" width="1160" height="170" rx="8" fill="#FAF9F6" stroke="#000000" stroke-width="1" stroke-dasharray="6 4"/>
  <text x="44" y="198" font-size="22" font-weight="500" fill="#000000" font-family="Avenir Next, Helvetica Neue, Arial, sans-serif">AI Agent and Application</text>
  <text x="44" y="228" font-size="18" fill="#27272A">
    <tspan x="44" dy="0">Bash commands, VFS</tspan>
    <tspan x="44" dy="24">calls, or syscalls</tspan>
  </text>

  <!-- AI Agent (centered over connectors at x=470 and x=680: equal 30px margins on each side) -->
  <rect x="440" y="210" width="270" height="52" rx="4" fill="#FFFFFF" stroke="#000000" stroke-width="1.2"/>
  <text x="575" y="242" text-anchor="middle" font-size="19" font-weight="500" fill="#000000" font-family="Avenir Next, Helvetica Neue, Arial, sans-serif">AI Agent</text>

  <!-- OS Processes (positioned over FUSE Adapter x=890 for vertical connector) -->
  <rect x="791" y="210" width="198" height="52" rx="4" fill="#FFFFFF" stroke="#000000" stroke-width="1.2"/>
  <text x="890" y="242" text-anchor="middle" font-size="19" font-weight="500" fill="#000000" font-family="Avenir Next, Helvetica Neue, Arial, sans-serif">App &amp; CLI</text>


  <!-- ===================== LAYER 2: WORKSPACE ===================== -->
  <rect x="20" y="376" width="1160" height="200" rx="8" fill="#FAF9F6" stroke="#000000" stroke-width="1" stroke-dasharray="6 4"/>
  <text x="44" y="414" font-size="22" font-weight="500" fill="#000000" font-family="Avenir Next, Helvetica Neue, Arial, sans-serif">Mirage Bash and VFS</text>
  <text x="44" y="444" font-size="18" fill="#27272A">
    <tspan x="44" dy="0">Mirage Bash &amp;</tspan>
    <tspan x="44" dy="24">registered commands;</tspan>
    <tspan x="44" dy="24">Mirage VFS &amp;</tspan>
    <tspan x="44" dy="24">registered VFS ops</tspan>
  </text>

  <!-- Mirage Shell -->
  <rect x="376" y="409" width="188" height="52" rx="4" fill="#FFFFFF" stroke="#000000" stroke-width="1.2"/>
  <text x="470" y="441" text-anchor="middle" font-size="19" font-weight="500" fill="#000000" font-family="Avenir Next, Helvetica Neue, Arial, sans-serif">Mirage Bash</text>

  <!-- Mirage VFS -->
  <rect x="596" y="409" width="168" height="52" rx="4" fill="#FFFFFF" stroke="#000000" stroke-width="1.2"/>
  <text x="680" y="441" text-anchor="middle" font-size="19" font-weight="500" fill="#000000" font-family="Avenir Next, Helvetica Neue, Arial, sans-serif">Mirage VFS</text>

  <!-- FUSE Adapter -->
  <rect x="796" y="409" width="188" height="52" rx="4" fill="#FFFFFF" stroke="#000000" stroke-width="1.2"/>
  <text x="890" y="441" text-anchor="middle" font-size="19" font-weight="500" fill="#000000" font-family="Avenir Next, Helvetica Neue, Arial, sans-serif">FUSE Adapter</text>

  <!-- Command Registry -->
  <rect x="376" y="491" width="188" height="52" rx="4" fill="#FFFFFF" stroke="#000000" stroke-width="1.2"/>
  <text x="470" y="523" text-anchor="middle" font-size="19" font-weight="500" fill="#000000" font-family="Avenir Next, Helvetica Neue, Arial, sans-serif">Command Registry</text>

  <!-- VFS Registry -->
  <rect x="596" y="491" width="168" height="52" rx="4" fill="#FFFFFF" stroke="#000000" stroke-width="1.2"/>
  <text x="680" y="523" text-anchor="middle" font-size="19" font-weight="500" fill="#000000" font-family="Avenir Next, Helvetica Neue, Arial, sans-serif">VFS Registry</text>

  <!-- Shell -> Command Registry -->
  <line x1="470" y1="461" x2="470" y2="491" stroke="#27272A" stroke-width="1.2" marker-end="url(#arrow)"/>

  <!-- Mirage VFS -> VFS Registry -->
  <line x1="680" y1="461" x2="680" y2="491" stroke="#27272A" stroke-width="1.2" marker-end="url(#arrow)"/>

  <!-- FUSE -> Mirage VFS -->
  <line x1="796" y1="435" x2="764" y2="435" stroke="#27272A" stroke-width="1.2" marker-end="url(#arrow)"/>

  <!-- ===================== LAYER 3: DISPATCHER & CACHE ===================== -->
  <rect x="20" y="622" width="1160" height="140" rx="8" fill="#FAF9F6" stroke="#000000" stroke-width="1" stroke-dasharray="6 4"/>
  <text x="44" y="660" font-size="22" font-weight="500" fill="#000000" font-family="Avenir Next, Helvetica Neue, Arial, sans-serif">Dispatcher &amp; Cache</text>
  <text x="44" y="690" font-size="18" fill="#27272A">
    <tspan x="44" dy="0">Dispatches by mount;</tspan>
    <tspan x="44" dy="24">caches repeats</tspan>
  </text>

  <!-- Mirage Dispatcher (matches AI Agent dimensions: w=270, h=52, x=440) -->
  <rect x="440" y="666" width="270" height="52" rx="4" fill="#FFFFFF" stroke="#000000" stroke-width="1.2"/>
  <text x="575" y="698" text-anchor="middle" font-size="19" font-weight="500" fill="#000000" font-family="Avenir Next, Helvetica Neue, Arial, sans-serif">Mirage Dispatcher</text>

  <!-- Index & File Cache (merged; aligned x with Application & CLI: x=800, w=180) -->
  <rect x="791" y="666" width="198" height="52" rx="4" fill="#FFFFFF" stroke="#000000" stroke-width="1.2"/>
  <text x="890" y="698" text-anchor="middle" font-size="19" font-weight="500" fill="#000000" font-family="Avenir Next, Helvetica Neue, Arial, sans-serif">Index &amp; File Cache</text>

  <!-- Dispatcher -> Cache -->
  <line x1="710" y1="692" x2="791" y2="692" stroke="#27272A" stroke-width="1.2" marker-end="url(#arrow)"/>

  <!-- ===================== LAYER 4: BACKEND ===================== -->
  <rect x="20" y="808" width="1160" height="190" rx="8" fill="#FAF9F6" stroke="#000000" stroke-width="1" stroke-dasharray="6 4"/>
  <text x="44" y="846" font-size="22" font-weight="500" fill="#000000" font-family="Avenir Next, Helvetica Neue, Arial, sans-serif">Infrastructure and Remote</text>
  <text x="44" y="876" font-size="18" fill="#27272A">
    <tspan x="44" dy="0">Infrastructure &amp; remote,</tspan>
    <tspan x="44" dy="24">mounted as one tree</tspan>
  </text>

  <!-- Infrastructure (renamed from Local Backends; aligned x with Mirage Shell at 380, w=180) -->
  <rect x="380" y="833" width="180" height="140" rx="4" fill="#FFFFFF" stroke="#000000" stroke-width="1.2"/>
  <text x="470" y="861" text-anchor="middle" font-size="19" font-weight="500" fill="#000000" font-family="Avenir Next, Helvetica Neue, Arial, sans-serif">Infrastructure</text>
  <line x1="420" y1="873" x2="520" y2="873" stroke="#E4E4E7" stroke-width="1"/>
  <text x="470" y="897" text-anchor="middle" font-size="15" fill="#27272A">RAM</text>
  <text x="470" y="919" text-anchor="middle" font-size="15" fill="#27272A">Disk</text>
  <text x="470" y="941" text-anchor="middle" font-size="15" fill="#27272A">OPFS</text>
  <text x="470" y="963" text-anchor="middle" font-size="15" fill="#27272A">Redis</text>

  <!-- Remote Services (widened by 10px each side: x=790, w=200; center stays at 890) -->
  <rect x="790" y="833" width="200" height="140" rx="4" fill="#FFFFFF" stroke="#000000" stroke-width="1.2"/>
  <text x="890" y="861" text-anchor="middle" font-size="19" font-weight="500" fill="#000000" font-family="Avenir Next, Helvetica Neue, Arial, sans-serif">Remote Service</text>
  <line x1="830" y1="873" x2="950" y2="873" stroke="#E4E4E7" stroke-width="1"/>

  <!-- Icon grid: 6 per row, 22x22 colored rect with inlined simple-icons brand SVG -->
  <g transform="translate(804,883)"><rect width="22" height="22" rx="5" fill="#FF9900"/><svg x="3" y="3" width="16" height="16" viewBox="0 0 24 24"><path fill="#FFFFFF" d="m20.913 13.147l.12-.895c.947.576 1.258.922 1.354 1.071c-.16.031-.562.046-1.474-.176m-2.174 7.988l-.005.073c0 .084-.207.405-1.124.768a10 10 0 0 1-1.438.432c-1.405.325-3.128.504-4.853.504c-4.612 0-7.412-1.184-7.412-1.704l-.005-.073L1.81 5.602q.203.117.432.227q.064.03.128.057q.2.093.417.18l.179.069q.232.087.478.168l.13.043q.311.097.646.187l.176.044q.263.066.534.127a23 23 0 0 0 .843.17l.121.023q.378.067.768.122q.107.016.216.03q.299.04.604.077l.24.027q.366.04.74.07l.081.009q.413.033.83.056l.233.012q.316.015.633.025a33 33 0 0 0 2.795-.026l.232-.011q.417-.023.83-.056l.08-.008q.375-.03.742-.072l.238-.026q.307-.036.609-.077l.211-.03q.392-.056.772-.122l.111-.02q.323-.06.634-.125l.212-.047q.279-.062.546-.13l.166-.042q.338-.09.654-.189l.115-.038a11 11 0 0 0 .493-.173q.087-.032.17-.066q.225-.089.43-.185q.059-.025.116-.052q.23-.11.436-.228l-.976 7.245c-2.488-.78-5.805-2.292-7.311-3a1.09 1.09 0 0 0-1.088-1.085c-.6 0-1.088.489-1.088 1.088s.488 1.089 1.088 1.089c.196 0 .378-.056.537-.148c1.72.812 5.144 2.367 7.715 3.15zm-7.42-20.047c5.677 0 9.676 1.759 9.75 2.736l-.014.113c-.01.033-.031.067-.048.101c-.015.028-.026.057-.047.087c-.024.033-.058.068-.09.102c-.028.03-.051.06-.084.09c-.038.035-.087.07-.133.105c-.04.03-.074.06-.119.091c-.053.036-.116.071-.177.107c-.05.03-.095.06-.15.09c-.068.036-.147.073-.222.11c-.059.028-.114.057-.177.085c-.084.038-.177.074-.268.111c-.068.027-.13.054-.203.082c-.097.036-.205.072-.31.107c-.075.026-.148.053-.228.079c-.111.035-.233.069-.35.103c-.085.024-.165.05-.253.073c-.124.034-.258.065-.389.098c-.093.022-.181.046-.278.068c-.139.032-.287.061-.433.091c-.098.02-.191.041-.293.06c-.155.03-.32.057-.482.084c-.1.018-.198.036-.302.052c-.166.026-.342.048-.515.072c-.11.014-.213.03-.325.044c-.181.023-.372.041-.56.06q-.163.019-.332.036c-.188.016-.386.029-.58.043c-.122.009-.24.02-.364.028c-.207.012-.422.02-.635.028c-.12.005-.234.012-.354.016a36 36 0 0 1-2.069 0c-.12-.004-.234-.011-.352-.016c-.214-.008-.43-.016-.637-.028c-.122-.008-.238-.02-.36-.027c-.195-.015-.394-.028-.584-.044c-.11-.01-.215-.024-.324-.035c-.19-.02-.384-.038-.568-.06l-.315-.044c-.176-.024-.355-.046-.525-.073c-.1-.015-.192-.033-.29-.05c-.167-.028-.335-.055-.494-.086c-.096-.018-.183-.038-.276-.056c-.151-.032-.305-.062-.45-.095c-.09-.02-.173-.043-.26-.064c-.138-.034-.277-.067-.407-.102c-.082-.022-.157-.046-.235-.069a12 12 0 0 1-.368-.108c-.075-.024-.141-.049-.213-.073c-.11-.037-.223-.075-.325-.113c-.067-.025-.125-.051-.188-.077c-.096-.038-.195-.076-.282-.115c-.06-.027-.11-.054-.166-.08c-.08-.039-.162-.077-.233-.116c-.052-.028-.094-.055-.142-.084c-.063-.038-.13-.075-.185-.113c-.043-.029-.075-.058-.113-.086c-.048-.037-.098-.073-.139-.11c-.032-.029-.054-.057-.08-.087c-.033-.035-.069-.07-.093-.104c-.02-.03-.031-.058-.046-.086c-.018-.035-.039-.068-.049-.102l-.015-.113c.076-.977 4.074-2.736 9.748-2.736m12.182 12.124c-.118-.628-.84-1.291-2.31-2.128l.963-7.16l.005-.073C22.16 1.581 16.447 0 11.32 0C6.194 0 .482 1.581.482 3.851l.005.072L2.819 21.25c.071 2.002 5.236 2.75 8.5 2.75c1.805 0 3.615-.188 5.098-.531c.598-.138 1.133-.3 1.592-.48c1.18-.467 1.789-1.053 1.813-1.739l.945-7.018c.557.131 1.016.197 1.389.197c.54 0 .902-.137 1.134-.413a.96.96 0 0 0 .21-.804Z"/></svg></g>  <!-- S3 -->
  <g transform="translate(834,883)"><rect width="22" height="22" rx="5" fill="#F38020"/><svg x="3" y="3" width="16" height="16" viewBox="0 0 24 24"><path fill="#FFFFFF" d="M16.509 16.845c.147-.507.09-.971-.155-1.316c-.225-.316-.605-.499-1.062-.52l-8.66-.113a.16.16 0 0 1-.133-.07a.2.2 0 0 1-.02-.156a.24.24 0 0 1 .203-.156l8.736-.113c1.035-.049 2.16-.886 2.554-1.913l.499-1.302a.27.27 0 0 0 .014-.168a5.689 5.689 0 0 0-10.937-.584a2.58 2.58 0 0 0-1.794-.498a2.56 2.56 0 0 0-2.223 3.18A3.634 3.634 0 0 0 0 16.751q.002.264.035.527a.174.174 0 0 0 .17.148h15.98a.22.22 0 0 0 .204-.155zm2.757-5.564c-.077 0-.161 0-.239.011c-.056 0-.105.042-.127.098l-.337 1.174c-.148.507-.092.971.154 1.317c.225.316.605.498 1.062.52l1.844.113c.056 0 .105.026.133.07a.2.2 0 0 1 .021.156a.24.24 0 0 1-.204.156l-1.92.112c-1.042.049-2.159.887-2.553 1.914l-.141.358c-.028.072.021.142.099.142h6.597a.174.174 0 0 0 .17-.126a5 5 0 0 0 .175-1.28a4.74 4.74 0 0 0-4.734-4.727"/></svg></g>  <!-- R2 (Cloudflare) -->
  <g transform="translate(864,883)"><rect width="22" height="22" rx="5" fill="#C74634"/><svg x="3" y="3" width="16" height="16" viewBox="0 0 24 24"><path fill="#FFFFFF" d="M16.412 4.412h-8.82a7.588 7.588 0 0 0-.008 15.176h8.828a7.588 7.588 0 0 0 0-15.176m-.193 12.502H7.786a4.915 4.915 0 0 1 0-9.828h8.433a4.914 4.914 0 1 1 0 9.828"/></svg></g>  <!-- OCI -->
  <g transform="translate(894,883)"><rect width="22" height="22" rx="5" fill="#4285F4"/><svg x="3" y="3" width="16" height="16" viewBox="0 0 24 24"><path fill="#FFFFFF" d="M12.19 2.38a9.344 9.344 0 0 0-9.234 6.893c.053-.02-.055.013 0 0c-3.875 2.551-3.922 8.11-.247 10.941l.006-.007l-.007.03a6.7 6.7 0 0 0 4.077 1.356h5.173l.03.03h5.192c6.687.053 9.376-8.605 3.835-12.35a9.37 9.37 0 0 0-2.821-4.552l-.043.043l.006-.05A9.34 9.34 0 0 0 12.19 2.38m-.358 4.146c1.244-.04 2.518.368 3.486 1.15a5.19 5.19 0 0 1 1.862 4.078v.518c3.53-.07 3.53 5.262 0 5.193h-5.193l-.008.009v-.04H6.785a2.6 2.6 0 0 1-1.067-.23h.001a2.597 2.597 0 1 1 3.437-3.437l3.013-3.012A6.75 6.75 0 0 0 8.11 8.24c.018-.01.04-.026.054-.023a5.2 5.2 0 0 1 3.67-1.69z"/></svg></g>  <!-- GCS -->
  <g transform="translate(924,883)"><rect width="22" height="22" rx="5" fill="#3FCF8E"/><svg x="3" y="3" width="16" height="16" viewBox="0 0 24 24"><path fill="#FFFFFF" d="M11.9 1.036c-.015-.986-1.26-1.41-1.874-.637L.764 12.05C-.33 13.427.65 15.455 2.409 15.455h9.579l.113 7.51c.014.985 1.259 1.408 1.873.636l9.262-11.653c1.093-1.375.113-3.403-1.645-3.403h-9.642z"/></svg></g>  <!-- Supabase -->
  <g transform="translate(954,883)"><rect width="22" height="22" rx="5" fill="#EA4335"/><svg x="3" y="3" width="16" height="16" viewBox="0 0 24 24"><path fill="#FFFFFF" d="M24 5.457v13.909c0 .904-.732 1.636-1.636 1.636h-3.819V11.73L12 16.64l-6.545-4.91v9.273H1.636A1.636 1.636 0 0 1 0 19.366V5.457c0-2.023 2.309-3.178 3.927-1.964L5.455 4.64L12 9.548l6.545-4.91l1.528-1.145C21.69 2.28 24 3.434 24 5.457"/></svg></g>  <!-- Gmail -->
  <g transform="translate(804,911)"><rect width="22" height="22" rx="5" fill="#1FA463"/><svg x="3" y="3" width="16" height="16" viewBox="0 0 24 24"><path fill="#FFFFFF" d="M12.01 1.485c-2.082 0-3.754.02-3.743.047c.01.02 1.708 3.001 3.774 6.62l3.76 6.574h3.76c2.081 0 3.753-.02 3.742-.047c-.005-.02-1.708-3.001-3.775-6.62l-3.76-6.574zm-4.76 1.73a789.828 789.861 0 0 0-3.63 6.319L0 15.868l1.89 3.298l1.885 3.297l3.62-6.335l3.618-6.33l-1.88-3.287C8.1 4.704 7.255 3.22 7.25 3.214zm2.259 12.653l-.203.348c-.114.198-.96 1.672-1.88 3.287a423.93 423.948 0 0 1-1.698 2.97c-.01.026 3.24.042 7.222.042h7.244l1.796-3.157c.992-1.734 1.85-3.23 1.906-3.323l.104-.167h-7.249z"/></svg></g>  <!-- GDrive -->
  <g transform="translate(834,911)"><rect width="22" height="22" rx="5" fill="#4285F4"/><svg x="3" y="3" width="16" height="16" viewBox="0 0 24 24"><path fill="#FFFFFF" d="M14.727 6.727H14V0H4.91c-.905 0-1.637.732-1.637 1.636v20.728c0 .904.732 1.636 1.636 1.636h14.182c.904 0 1.636-.732 1.636-1.636V6.727zm-.545 10.455H7.09v-1.364h7.09v1.364zm2.727-3.273H7.091v-1.364h9.818zm0-3.273H7.091V9.273h9.818zM14.727 6h6l-6-6z"/></svg></g>  <!-- GDocs -->
  <g transform="translate(864,911)"><rect width="22" height="22" rx="5" fill="#34A853"/><svg x="3" y="3" width="16" height="16" viewBox="0 0 24 24"><path fill="#FFFFFF" d="M11.318 12.545H7.91v-1.909h3.41v1.91zM14.728 0v6h6zm1.363 10.636h-3.41v1.91h3.41zm0 3.273h-3.41v1.91h3.41zM20.727 6.5v15.864c0 .904-.732 1.636-1.636 1.636H4.909a1.636 1.636 0 0 1-1.636-1.636V1.636C3.273.732 4.005 0 4.909 0h9.318v6.5zm-3.273 2.773H6.545v7.909h10.91v-7.91zm-6.136 4.636H7.91v1.91h3.41v-1.91z"/></svg></g>  <!-- GSheets -->
  <g transform="translate(894,911)"><rect width="22" height="22" rx="5" fill="#FBBC04"/><svg x="3" y="3" width="16" height="16" viewBox="0 0 24 24"><path fill="#FFFFFF" d="M16.09 15.273H7.91v-4.637h8.18zm1.728-8.523h2.91v15.614c0 .904-.733 1.636-1.637 1.636H4.909a1.636 1.636 0 0 1-1.636-1.636V1.636C3.273.732 4.005 0 4.909 0h9.068v6.75zm-.363 2.523H6.545v7.363h10.91zm-2.728-5.979V6h6.001l-6-6v3.294z"/></svg></g>  <!-- GSlides -->
  <g transform="translate(924,911)"><rect width="22" height="22" rx="5" fill="#4A154B"/><svg x="3" y="3" width="16" height="16" viewBox="0 0 24 24"><path fill="#FFFFFF" d="M5.042 15.165a2.53 2.53 0 0 1-2.52 2.523A2.53 2.53 0 0 1 0 15.165a2.527 2.527 0 0 1 2.522-2.52h2.52zm1.271 0a2.527 2.527 0 0 1 2.521-2.52a2.527 2.527 0 0 1 2.521 2.52v6.313A2.53 2.53 0 0 1 8.834 24a2.53 2.53 0 0 1-2.521-2.522zM8.834 5.042a2.53 2.53 0 0 1-2.521-2.52A2.53 2.53 0 0 1 8.834 0a2.53 2.53 0 0 1 2.521 2.522v2.52zm0 1.271a2.53 2.53 0 0 1 2.521 2.521a2.53 2.53 0 0 1-2.521 2.521H2.522A2.53 2.53 0 0 1 0 8.834a2.53 2.53 0 0 1 2.522-2.521zm10.122 2.521a2.53 2.53 0 0 1 2.522-2.521A2.53 2.53 0 0 1 24 8.834a2.53 2.53 0 0 1-2.522 2.521h-2.522zm-1.268 0a2.53 2.53 0 0 1-2.523 2.521a2.527 2.527 0 0 1-2.52-2.521V2.522A2.527 2.527 0 0 1 15.165 0a2.53 2.53 0 0 1 2.523 2.522zm-2.523 10.122a2.53 2.53 0 0 1 2.523 2.522A2.53 2.53 0 0 1 15.165 24a2.527 2.527 0 0 1-2.52-2.522v-2.522zm0-1.268a2.527 2.527 0 0 1-2.52-2.523a2.526 2.526 0 0 1 2.52-2.52h6.313A2.527 2.527 0 0 1 24 15.165a2.53 2.53 0 0 1-2.522 2.523z"/></svg></g>  <!-- Slack -->
  <g transform="translate(954,911)"><rect width="22" height="22" rx="5" fill="#5865F2"/><svg x="3" y="3" width="16" height="16" viewBox="0 0 24 24"><path fill="#FFFFFF" d="M20.317 4.37a19.8 19.8 0 0 0-4.885-1.515a.074.074 0 0 0-.079.037c-.21.375-.444.864-.608 1.25a18.3 18.3 0 0 0-5.487 0a13 13 0 0 0-.617-1.25a.08.08 0 0 0-.079-.037A19.7 19.7 0 0 0 3.677 4.37a.1.1 0 0 0-.032.027C.533 9.046-.32 13.58.099 18.057a.08.08 0 0 0 .031.057a19.9 19.9 0 0 0 5.993 3.03a.08.08 0 0 0 .084-.028a14 14 0 0 0 1.226-1.994a.076.076 0 0 0-.041-.106a13 13 0 0 1-1.872-.892a.077.077 0 0 1-.008-.128a10 10 0 0 0 .372-.292a.07.07 0 0 1 .077-.01c3.928 1.793 8.18 1.793 12.062 0a.07.07 0 0 1 .078.01q.181.149.373.292a.077.077 0 0 1-.006.127a12.3 12.3 0 0 1-1.873.892a.077.077 0 0 0-.041.107c.36.698.772 1.362 1.225 1.993a.08.08 0 0 0 .084.028a19.8 19.8 0 0 0 6.002-3.03a.08.08 0 0 0 .032-.054c.5-5.177-.838-9.674-3.549-13.66a.06.06 0 0 0-.031-.03M8.02 15.33c-1.182 0-2.157-1.085-2.157-2.419c0-1.333.956-2.419 2.157-2.419c1.21 0 2.176 1.096 2.157 2.42c0 1.333-.956 2.418-2.157 2.418m7.975 0c-1.183 0-2.157-1.085-2.157-2.419c0-1.333.955-2.419 2.157-2.419c1.21 0 2.176 1.096 2.157 2.42c0 1.333-.946 2.418-2.157 2.418"/></svg></g>  <!-- Discord -->
  <g transform="translate(804,939)"><rect width="22" height="22" rx="5" fill="#26A5E4"/><svg x="3" y="3" width="16" height="16" viewBox="0 0 24 24"><path fill="#FFFFFF" d="M11.944 0A12 12 0 0 0 0 12a12 12 0 0 0 12 12a12 12 0 0 0 12-12A12 12 0 0 0 12 0zm4.962 7.224c.1-.002.321.023.465.14a.5.5 0 0 1 .171.325c.016.093.036.306.02.472c-.18 1.898-.962 6.502-1.36 8.627c-.168.9-.499 1.201-.82 1.23c-.696.065-1.225-.46-1.9-.902c-1.056-.693-1.653-1.124-2.678-1.8c-1.185-.78-.417-1.21.258-1.91c.177-.184 3.247-2.977 3.307-3.23c.007-.032.014-.15-.056-.212s-.174-.041-.249-.024q-.159.037-5.061 3.345q-.72.495-1.302.48c-.428-.008-1.252-.241-1.865-.44c-.752-.245-1.349-.374-1.297-.789q.04-.324.893-.663q5.247-2.286 6.998-3.014c3.332-1.386 4.025-1.627 4.476-1.635"/></svg></g>  <!-- Telegram -->
  <g transform="translate(834,939)"><rect width="22" height="22" rx="5" fill="#181717"/><svg x="3" y="3" width="16" height="16" viewBox="0 0 24 24"><path fill="#FFFFFF" d="M12 .297c-6.63 0-12 5.373-12 12c0 5.303 3.438 9.8 8.205 11.385c.6.113.82-.258.82-.577c0-.285-.01-1.04-.015-2.04c-3.338.724-4.042-1.61-4.042-1.61C4.422 18.07 3.633 17.7 3.633 17.7c-1.087-.744.084-.729.084-.729c1.205.084 1.838 1.236 1.838 1.236c1.07 1.835 2.809 1.305 3.495.998c.108-.776.417-1.305.76-1.605c-2.665-.3-5.466-1.332-5.466-5.93c0-1.31.465-2.38 1.235-3.22c-.135-.303-.54-1.523.105-3.176c0 0 1.005-.322 3.3 1.23c.96-.267 1.98-.399 3-.405c1.02.006 2.04.138 3 .405c2.28-1.552 3.285-1.23 3.285-1.23c.645 1.653.24 2.873.12 3.176c.765.84 1.23 1.91 1.23 3.22c0 4.61-2.805 5.625-5.475 5.92c.42.36.81 1.096.81 2.22c0 1.606-.015 2.896-.015 3.286c0 .315.21.69.825.57C20.565 22.092 24 17.592 24 12.297c0-6.627-5.373-12-12-12"/></svg></g>  <!-- GitHub -->
  <g transform="translate(864,939)"><rect width="22" height="22" rx="5" fill="#5E6AD2"/><svg x="3" y="3" width="16" height="16" viewBox="0 0 24 24"><path fill="#FFFFFF" d="M2.886 4.18A11.98 11.98 0 0 1 11.99 0C18.624 0 24 5.376 24 12.009c0 3.64-1.62 6.903-4.18 9.105L2.887 4.18ZM1.817 5.626l16.556 16.556q-.787.496-1.65.866L.951 7.277q.371-.863.866-1.65ZM.322 9.163l14.515 14.515q-1.066.26-2.195.322L0 11.358a12 12 0 0 1 .322-2.195m-.17 4.862l9.823 9.824a12.02 12.02 0 0 1-9.824-9.824Z"/></svg></g>  <!-- Linear -->
  <g transform="translate(894,939)"><rect width="22" height="22" rx="5" fill="#000000"/><svg x="3" y="3" width="16" height="16" viewBox="0 0 24 24"><path fill="#FFFFFF" d="M4.459 4.208c.746.606 1.026.56 2.428.466l13.215-.793c.28 0 .047-.28-.046-.326L17.86 1.968c-.42-.326-.981-.7-2.055-.607L3.01 2.295c-.466.046-.56.28-.374.466zm.793 3.08v13.904c0 .747.373 1.027 1.214.98l14.523-.84c.841-.046.935-.56.935-1.167V6.354c0-.606-.233-.933-.748-.887l-15.177.887c-.56.047-.747.327-.747.933zm14.337.745c.093.42 0 .84-.42.888l-.7.14v10.264c-.608.327-1.168.514-1.635.514c-.748 0-.935-.234-1.495-.933l-4.577-7.186v6.952L12.21 19s0 .84-1.168.84l-3.222.186c-.093-.186 0-.653.327-.746l.84-.233V9.854L7.822 9.76c-.094-.42.14-1.026.793-1.073l3.456-.233l4.764 7.279v-6.44l-1.215-.139c-.093-.514.28-.887.747-.933zM1.936 1.035l13.31-.98c1.634-.14 2.055-.047 3.082.7l4.249 2.986c.7.513.934.653.934 1.213v16.378c0 1.026-.373 1.634-1.68 1.726l-15.458.934c-.98.047-1.448-.093-1.962-.747l-3.129-4.06c-.56-.747-.793-1.306-.793-1.96V2.667c0-.839.374-1.54 1.447-1.632"/></svg></g>  <!-- Notion -->
  <g transform="translate(924,939)"><rect width="22" height="22" rx="5" fill="#47A248"/><svg x="3" y="3" width="16" height="16" viewBox="0 0 24 24"><path fill="#FFFFFF" d="M17.193 9.555c-1.264-5.58-4.252-7.414-4.573-8.115c-.28-.394-.53-.954-.735-1.44c-.036.495-.055.685-.523 1.184c-.723.566-4.438 3.682-4.74 10.02c-.282 5.912 4.27 9.435 4.888 9.884l.07.05A74 74 0 0 1 11.91 24h.481a29 29 0 0 1 .51-3.07c.417-.296.604-.463.85-.693a11.34 11.34 0 0 0 3.639-8.464c.01-.814-.103-1.662-.197-2.218m-5.336 8.195s0-8.291.275-8.29c.213 0 .49 10.695.49 10.695c-.381-.045-.765-1.76-.765-2.405"/></svg></g>  <!-- MongoDB -->
  <text x="965" y="957" text-anchor="middle" font-size="16" font-weight="700" fill="#27272A" font-family="Avenir Next, Helvetica Neue, Arial, sans-serif">…</text>

  <!-- ===================== CROSS-LAYER ARROWS ===================== -->
  <!-- AI Agent -> Mirage Shell (vertical) -->
  <line x1="470" y1="262" x2="470" y2="409" stroke="#27272A" stroke-width="1.2" marker-end="url(#arrow)"/>
  <rect x="176" y="282" width="282" height="28" rx="4" fill="#FFFFFF" stroke="#000000" stroke-width="1"/>
  <text x="450" y="302" text-anchor="end" font-size="18" font-family="'IBM Plex Mono', ui-monospace, 'SF Mono', Menlo, monospace" fill="#27272A">grep alert /s3/log.jsonl</text>

  <!-- AI Agent -> Mirage VFS (vertical) -->
  <line x1="680" y1="262" x2="680" y2="409" stroke="#27272A" stroke-width="1.2" marker-end="url(#arrow)"/>
  <rect x="490" y="282" width="180" height="28" rx="4" fill="#FFFFFF" stroke="#000000" stroke-width="1"/>
  <text x="662" y="302" text-anchor="end" font-size="18" font-family="'IBM Plex Mono', ui-monospace, 'SF Mono', Menlo, monospace" fill="#27272A">stat /paper.pdf</text>

  <!-- Application & CLI -> FUSE (vertical) -->
  <line x1="890" y1="262" x2="890" y2="409" stroke="#27272A" stroke-width="1.2" marker-end="url(#arrow)"/>
  <rect x="902" y="282" width="200" height="28" rx="4" fill="#FFFFFF" stroke="#000000" stroke-width="1"/>
  <text x="910" y="302" font-size="18" font-family="'IBM Plex Mono', ui-monospace, 'SF Mono', Menlo, monospace" fill="#27272A">read /r2/data.csv</text>

  <!-- Command Registry -> Dispatcher (vertical) -->
  <line x1="470" y1="543" x2="470" y2="666" stroke="#27272A" stroke-width="1.2" marker-end="url(#arrow)"/>

  <!-- VFS Registry -> Dispatcher (vertical) -->
  <line x1="680" y1="543" x2="680" y2="666" stroke="#27272A" stroke-width="1.2" marker-end="url(#arrow)"/>

  <!-- Dispatcher -> Infrastructure (vertical, aligned with CR -> Dispatcher connector at x=470) -->
  <line x1="470" y1="718" x2="470" y2="833" stroke="#27272A" stroke-width="1.2" marker-end="url(#arrow)"/>

  <!-- Dispatcher -> Remote Services (start x=680 matches PR -> Dispatcher; end x=890 matches Cache -> RS) -->
  <line x1="680" y1="718" x2="890" y2="833" stroke="#27272A" stroke-width="1.2" marker-end="url(#arrow)"/>

  <!-- Cache - Remote Services (cache-hit short-circuit; dotted, no arrowhead) -->
  <line x1="890" y1="718" x2="890" y2="833" stroke="#27272A" stroke-width="1.2" stroke-dasharray="4 3"/>

</svg>
