<svg xmlns="http://www.w3.org/2000/svg" viewBox="0 0 960 870" width="960" height="870">
  <defs>
    <linearGradient id="titleGrad" x1="0" y1="0" x2="1" y2="0">
      <stop offset="0%" stop-color="#D44040"/>
      <stop offset="100%" stop-color="#4A90D4"/>
    </linearGradient>
    <linearGradient id="feedbackGrad" x1="0" y1="1" x2="0" y2="0">
      <stop offset="0%" stop-color="#6AAAD8"/>
      <stop offset="100%" stop-color="#B8D4F0"/>
    </linearGradient>
    <linearGradient id="libGrad" x1="0" y1="0" x2="1" y2="1">
      <stop offset="0%" stop-color="#D4E8FA"/>
      <stop offset="100%" stop-color="#C2D9F0"/>
    </linearGradient>
    <linearGradient id="dividerGrad" x1="0" y1="0" x2="1" y2="0">
      <stop offset="0%" stop-color="#FFFFFF"/>
      <stop offset="20%" stop-color="#F0CDCB"/>
      <stop offset="50%" stop-color="#E2E8F0"/>
      <stop offset="80%" stop-color="#B8D4F0"/>
      <stop offset="100%" stop-color="#FFFFFF"/>
    </linearGradient>
    <linearGradient id="evolveArrow" x1="355" y1="0" x2="435" y2="0" gradientUnits="userSpaceOnUse">
      <stop offset="0%" stop-color="#E8A0A0"/>
      <stop offset="100%" stop-color="#4A90D4"/>
    </linearGradient>
    <marker id="arrowGray" viewBox="0 0 10 10" refX="10" refY="5" markerWidth="8" markerHeight="8" orient="auto">
      <path d="M0,1.5 L8,5 L0,8.5" fill="none" stroke="#94A3B8" stroke-width="1.5" stroke-linecap="round" stroke-linejoin="round"/>
    </marker>
    <marker id="arrowBlue" viewBox="0 0 10 10" refX="10" refY="5" markerWidth="8" markerHeight="8" orient="auto">
      <path d="M0,1.5 L8,5 L0,8.5" fill="none" stroke="#6AAAD8" stroke-width="1.5" stroke-linecap="round" stroke-linejoin="round"/>
    </marker>
    <marker id="arrowGreen" viewBox="0 0 12 12" refX="11" refY="6" markerWidth="10" markerHeight="10" orient="auto">
      <path d="M0,1 L11,6 L0,11 z" fill="#6AAAD8"/>
    </marker>
    <filter id="softGlow">
      <feGaussianBlur stdDeviation="4" result="b"/>
      <feMerge><feMergeNode in="b"/><feMergeNode in="SourceGraphic"/></feMerge>
    </filter>
    <filter id="evolvedGlow">
      <feGaussianBlur stdDeviation="3" result="b"/>
      <feMerge><feMergeNode in="b"/><feMergeNode in="SourceGraphic"/></feMerge>
    </filter>
  </defs>
  <style>
    @keyframes flowDash{to{stroke-dashoffset:-24}}
    @keyframes pulse{0%,100%{opacity:1}50%{opacity:.55}}
    @keyframes corePulse{0%,100%{opacity:.85}50%{opacity:1}}
    @keyframes growBar{0%,100%{opacity:.7}50%{opacity:1}}
    .flow-line{animation:flowDash 1.8s linear infinite}
    .pulse{animation:pulse 2.5s ease-in-out infinite}
    .core-pulse{animation:corePulse 3s ease-in-out infinite}
    .grow-bar{animation:growBar 2s ease-in-out infinite}
  </style>

  <!-- Background -->
  <rect width="960" height="870" rx="18" fill="#FFFFFF"/>
  <rect width="960" height="870" rx="18" fill="none" stroke="#E2E8F0" stroke-width="1"/>

  <!-- ===== TITLE ===== -->
  <text x="480" y="44" text-anchor="middle" font-family="Inter,-apple-system,sans-serif" font-size="18" font-weight="800" letter-spacing="6" fill="url(#titleGrad)">TWO LOOPS, ONE EVOLUTION</text>
  <text x="480" y="80" text-anchor="middle" font-family="Inter,-apple-system,sans-serif" font-size="30" font-weight="900" fill="#0F172A">Hermes &#xD7; SkillClaw</text>
  <rect x="50" y="96" width="860" height="2" rx="1" fill="url(#dividerGrad)"/>

  <!-- ===== TASK BOX ===== -->
  <rect x="340" y="116" width="260" height="60" rx="14" fill="#F8FAFC" stroke="#CBD5E1" stroke-width="1.2"/>
  <rect x="370" y="130" width="22" height="28" rx="3" fill="none" stroke="#94A3B8" stroke-width="1.5"/>
  <rect x="375" y="126" width="12" height="6" rx="2" fill="#94A3B8"/>
  <line x1="376" y1="139" x2="386" y2="139" stroke="#CBD5E1" stroke-width="1.2"/>
  <line x1="376" y1="145" x2="386" y2="145" stroke="#CBD5E1" stroke-width="1.2"/>
  <line x1="376" y1="151" x2="383" y2="151" stroke="#CBD5E1" stroke-width="1.2"/>
  <text x="470" y="153" text-anchor="middle" font-family="Inter,-apple-system,sans-serif" font-size="24" font-weight="700" fill="#334155">Task N</text>

  <!-- Arrow: Task to Hermes -->
  <line x1="470" y1="176" x2="470" y2="210" stroke="#94A3B8" stroke-width="2.5" marker-end="url(#arrowGray)"/>

  <!-- ===== LOOP 1: HERMES ZONE ===== -->
  <rect x="100" y="220" width="620" height="165" rx="16" fill="#FEF7F7" stroke="#F0CDCB" stroke-width="1.5"/>

  <!-- Hermes Icon -->
  <g transform="translate(135, 238)">
    <circle cx="18" cy="18" r="18" fill="#FCEAEA" stroke="#E8A0A0" stroke-width="1.5"/>
    <path d="M20,6 L12,20 L18,20 L16,30 L24,16 L18,16 Z" fill="#D44040"/>
  </g>

  <rect x="180" y="240" width="42" height="24" rx="6" fill="#FCEAEA" stroke="#E8A0A0" stroke-width="1"/>
  <text x="201" y="257" text-anchor="middle" font-family="Inter,-apple-system,sans-serif" font-size="13" font-weight="800" fill="#D44040">L1</text>
  <text x="234" y="258" font-family="Inter,-apple-system,sans-serif" font-size="24" font-weight="800" fill="#B5302A">HERMES</text>
  <text x="420" y="258" font-family="Inter,-apple-system,sans-serif" font-size="16" font-weight="600" fill="#C0392B">During Task</text>

  <!-- Skill cards -->
  <g transform="translate(145, 280)">
    <!-- new skill card -->
    <rect x="0" y="0" width="155" height="62" rx="10" fill="#FFFFFF" stroke="#E8A0A0" stroke-width="1.2" class="pulse"/>
    <rect x="12" y="10" width="78" height="16" rx="4" fill="#FCEAEA"/>
    <text x="51" y="22" text-anchor="middle" font-family="Inter,-apple-system,sans-serif" font-size="11" font-weight="700" fill="#D44040">new skill</text>
    <rect x="12" y="32" width="115" height="6" rx="3" fill="#F0CDCB"/>
    <rect x="12" y="44" width="85" height="6" rx="3" fill="#F0CDCB" opacity=".6"/>
    <!-- Plus icon (create new) -->
    <line x1="130" y1="11" x2="130" y2="25" stroke="#D44040" stroke-width="2.5" stroke-linecap="round"/>
    <line x1="123" y1="18" x2="137" y2="18" stroke="#D44040" stroke-width="2.5" stroke-linecap="round"/>

    <!-- edit skill card -->
    <rect x="175" y="0" width="155" height="62" rx="10" fill="#FFFFFF" stroke="#D44040" stroke-width="1.2" stroke-dasharray="4 2" class="pulse" style="animation-delay:.4s"/>
    <rect x="187" y="10" width="78" height="16" rx="4" fill="#FCEAEA"/>
    <text x="226" y="22" text-anchor="middle" font-family="Inter,-apple-system,sans-serif" font-size="11" font-weight="700" fill="#D44040">edit skill</text>
    <rect x="187" y="32" width="120" height="6" rx="3" fill="#F0CDCB"/>
    <rect x="187" y="44" width="78" height="6" rx="3" fill="#F0CDCB" opacity=".6"/>
    <!-- Gear icon -->
    <circle cx="310" cy="14" r="7" fill="none" stroke="#D44040" stroke-width="1.8"/>
    <circle cx="310" cy="14" r="2.5" fill="#D44040"/>
  </g>

  <text x="520" y="306" font-family="Inter,-apple-system,sans-serif" font-size="18" font-weight="700" fill="#78350F">Hermes already writes</text>
  <text x="520" y="330" font-family="Inter,-apple-system,sans-serif" font-size="18" font-weight="700" fill="#78350F">and edits skills in-task</text>
  <text x="520" y="358" font-family="Inter,-apple-system,sans-serif" font-size="16" fill="#C0392B">Ad-hoc &#xB7; In the moment</text>

  <!-- Arrow: Hermes to SkillClaw -->
  <line x1="470" y1="385" x2="470" y2="428" stroke="#94A3B8" stroke-width="2.5" marker-end="url(#arrowGray)"/>
  <rect x="410" y="398" width="120" height="22" rx="6" fill="#F1F5F9"/>
  <text x="470" y="414" text-anchor="middle" font-family="Inter,-apple-system,sans-serif" font-size="14" font-weight="600" fill="#94A3B8">Task Done &#x2713;</text>

  <!-- ===== LOOP 2: SKILLCLAW ZONE ===== -->
  <rect x="100" y="438" width="620" height="310" rx="16" fill="#EBF4FF" stroke="#B8D4F0" stroke-width="1.5"/>

  <!-- SkillClaw Icon -->
  <g transform="translate(135, 456)">
    <circle cx="18" cy="18" r="18" fill="#D4E8FA" stroke="#6AAAD8" stroke-width="1.5"/>
    <path d="M18,6 L10,10 L10,18 C10,24 14,28 18,30 C22,28 26,24 26,18 L26,10 Z" fill="none" stroke="#4A90D4" stroke-width="1.8" stroke-linejoin="round"/>
    <path d="M14,18 L17,21 L23,14" fill="none" stroke="#4A90D4" stroke-width="1.8" stroke-linecap="round" stroke-linejoin="round"/>
  </g>

  <rect x="180" y="458" width="42" height="24" rx="6" fill="#D4E8FA" stroke="#6AAAD8" stroke-width="1"/>
  <text x="201" y="475" text-anchor="middle" font-family="Inter,-apple-system,sans-serif" font-size="13" font-weight="800" fill="#2B6FAC">L2</text>
  <text x="234" y="476" font-family="Inter,-apple-system,sans-serif" font-size="24" font-weight="800" fill="#1D4E7E">SKILLCLAW</text>
  <text x="425" y="476" font-family="Inter,-apple-system,sans-serif" font-size="16" font-weight="600" fill="#4A90D4">After Task</text>

  <text x="145" y="510" font-family="Inter,-apple-system,sans-serif" font-size="17" font-weight="600" fill="#2B6FAC">Driven by real session data</text>

  <!-- 4-Step Process -->
  <rect x="130" y="528" width="125" height="68" rx="12" fill="#D4E8FA" stroke="#B8D4F0" stroke-width="1.2"/>
  <path d="M180,539 L205,539 L198,550 L198,558 L187,558 L187,550 Z" fill="none" stroke="#4A90D4" stroke-width="1.5" stroke-linejoin="round"/>
  <text x="192" y="579" text-anchor="middle" font-family="Inter,-apple-system,sans-serif" font-size="20" font-weight="800" fill="#2B6FAC">Filter</text>

  <line x1="255" y1="562" x2="280" y2="562" stroke="#6AAAD8" stroke-width="2.5" marker-end="url(#arrowBlue)"/>

  <rect x="286" y="528" width="125" height="68" rx="12" fill="#D4E8FA" stroke="#B8D4F0" stroke-width="1.2"/>
  <path d="M343,558 L343,542 M337,548 L343,542 L349,548" fill="none" stroke="#4A90D4" stroke-width="1.8" stroke-linecap="round" stroke-linejoin="round"/>
  <text x="348" y="579" text-anchor="middle" font-family="Inter,-apple-system,sans-serif" font-size="20" font-weight="800" fill="#2B6FAC">Improve</text>

  <line x1="411" y1="562" x2="436" y2="562" stroke="#6AAAD8" stroke-width="2.5" marker-end="url(#arrowBlue)"/>

  <rect x="442" y="528" width="125" height="68" rx="12" fill="#D4E8FA" stroke="#B8D4F0" stroke-width="1.2"/>
  <path d="M494,544 L501,552 L511,539" fill="none" stroke="#4A90D4" stroke-width="2" stroke-linecap="round" stroke-linejoin="round"/>
  <text x="504" y="579" text-anchor="middle" font-family="Inter,-apple-system,sans-serif" font-size="20" font-weight="800" fill="#2B6FAC">Verify</text>

  <line x1="567" y1="562" x2="592" y2="562" stroke="#6AAAD8" stroke-width="2.5" marker-end="url(#arrowBlue)"/>

  <rect x="598" y="528" width="112" height="68" rx="12" fill="#C2D9F0" stroke="#4A90D4" stroke-width="2"/>
  <path d="M654,539 L664,549 L654,559 L644,549 Z" fill="none" stroke="#1D4E7E" stroke-width="1.8" stroke-linejoin="round"/>
  <text x="654" y="579" text-anchor="middle" font-family="Inter,-apple-system,sans-serif" font-size="20" font-weight="800" fill="#1D4E7E">Solidify</text>

  <!-- Down arrow: steps to result -->
  <line x1="410" y1="596" x2="410" y2="630" stroke="#6AAAD8" stroke-width="2" marker-end="url(#arrowBlue)"/>
  <text x="438" y="622" font-family="Inter,-apple-system,sans-serif" font-size="14" font-weight="700" fill="#4A90D4">RESULT</text>

  <!-- ===== SKILL EVOLUTION RESULT ===== -->
  <!-- Before: raw skill -->
  <rect x="135" y="640" width="195" height="88" rx="10" fill="#FEF7F7" stroke="#E8A0A0" stroke-width="1.2" stroke-dasharray="5 3" opacity=".9"/>
  <rect x="150" y="650" width="52" height="16" rx="4" fill="#FCEAEA"/>
  <text x="176" y="662" text-anchor="middle" font-family="Inter,-apple-system,sans-serif" font-size="11" font-weight="700" fill="#D44040">v1.0</text>
  <text x="215" y="662" font-family="Inter,-apple-system,sans-serif" font-size="15" font-weight="700" fill="#B5302A">Raw Skill</text>
  <rect x="150" y="674" width="100" height="6" rx="3" fill="#F0CDCB"/>
  <rect x="150" y="686" width="70" height="6" rx="3" fill="#F0CDCB" opacity=".7"/>
  <rect x="150" y="698" width="45" height="6" rx="3" fill="#F0CDCB" opacity=".4"/>
  <text x="150" y="718" font-family="Inter,-apple-system,sans-serif" font-size="14" fill="#C0392B">2 capabilities</text>

  <!-- Evolution arrow -->
  <rect x="345" y="680" width="80" height="4" rx="2" fill="url(#evolveArrow)"/>
  <polygon points="425,674 437,682 425,690" fill="#4A90D4"/>
  <text x="390" y="672" text-anchor="middle" font-family="Inter,-apple-system,sans-serif" font-size="15" font-weight="800" fill="#6366F1">EVOLVED</text>

  <!-- After: evolved skill -->
  <rect x="452" y="640" width="240" height="88" rx="10" fill="#EBF4FF" stroke="#4A90D4" stroke-width="2" filter="url(#evolvedGlow)"/>
  <rect x="466" y="650" width="52" height="16" rx="4" fill="#D4E8FA"/>
  <text x="492" y="662" text-anchor="middle" font-family="Inter,-apple-system,sans-serif" font-size="11" font-weight="700" fill="#2B6FAC">v2.0</text>
  <text x="534" y="662" font-family="Inter,-apple-system,sans-serif" font-size="15" font-weight="800" fill="#1D4E7E">Evolved Skill</text>
  <!-- Star (placed after text with spacing) -->
  <path d="M660,648 L663,655 L670,656 L665,660 L666,668 L660,664 L654,668 L655,660 L650,656 L657,655 Z" fill="#4A90D4" opacity=".6"/>
  <rect x="466" y="674" width="170" height="6" rx="3" fill="#B8D4F0" class="grow-bar"/>
  <rect x="466" y="686" width="148" height="6" rx="3" fill="#B8D4F0" class="grow-bar" style="animation-delay:.2s"/>
  <rect x="466" y="698" width="125" height="6" rx="3" fill="#B8D4F0" class="grow-bar" style="animation-delay:.4s"/>
  <rect x="466" y="710" width="100" height="6" rx="3" fill="#6AAAD8" class="grow-bar" style="animation-delay:.6s"/>
  <text x="466" y="724" font-family="Inter,-apple-system,sans-serif" font-size="14" font-weight="700" fill="#2B6FAC">5 capabilities &#x2191;</text>

  <!-- Bottom annotation -->
  <text x="420" y="742" text-anchor="middle" font-family="Inter,-apple-system,sans-serif" font-size="16" fill="#475569">Keep what works &#xB7; Discard what doesn't &#xB7; Evolve continuously</text>

  <!-- Arrow: SkillClaw to Library -->
  <line x1="470" y1="748" x2="470" y2="778" stroke="#94A3B8" stroke-width="2.5" marker-end="url(#arrowGray)"/>

  <!-- ===== SKILL LIBRARY ===== -->
  <ellipse cx="430" cy="812" rx="180" ry="30" fill="#D4E8FA" opacity=".3" class="core-pulse"/>
  <rect x="280" y="788" width="300" height="56" rx="14" fill="url(#libGrad)" stroke="#B8D4F0" stroke-width="1.8" filter="url(#softGlow)"/>
  <path d="M310,808 L310,820 M320,804 L320,820 M330,808 L330,820" stroke="#2B6FAC" stroke-width="2" stroke-linecap="round"/>
  <line x1="305" y1="822" x2="335" y2="822" stroke="#2B6FAC" stroke-width="2" stroke-linecap="round"/>
  <path d="M305,806 L320,798 L335,806" fill="none" stroke="#2B6FAC" stroke-width="1.5" stroke-linecap="round" stroke-linejoin="round"/>
  <text x="450" y="814" text-anchor="middle" font-family="Inter,-apple-system,sans-serif" font-size="20" font-weight="800" fill="#2B6FAC">Stronger Skills</text>
  <text x="450" y="834" text-anchor="middle" font-family="Inter,-apple-system,sans-serif" font-size="14" font-weight="600" fill="#3A7CBD">Personal &#xB7; Evolved &#xB7; Persistent</text>

  <!-- ===== FEEDBACK LOOP ARROW ===== -->
  <path d="M580,816 C760,816 820,660 820,540 C820,350 770,302 720,302"
        fill="none" stroke="url(#feedbackGrad)" stroke-width="3.5"
        stroke-dasharray="9 5" class="flow-line" marker-end="url(#arrowGreen)"/>

  <!-- Stronger Next Time (vertical along arrow) -->
  <text transform="rotate(90,845,500)" x="845" y="500" text-anchor="middle" font-family="Inter,-apple-system,sans-serif" font-size="17" font-weight="800" letter-spacing="2" fill="#4A90D4">STRONGER NEXT TIME</text>

  <!-- ===== SIDE ANNOTATIONS ===== -->
  <rect x="12" y="278" width="78" height="74" rx="10" fill="#FCEAEA" stroke="#E8A0A0" stroke-width="1" opacity=".85"/>
  <text x="51" y="305" text-anchor="middle" font-family="Inter,-apple-system,sans-serif" font-size="14" font-weight="700" fill="#B5302A">One-off</text>
  <text x="51" y="324" text-anchor="middle" font-family="Inter,-apple-system,sans-serif" font-size="14" font-weight="700" fill="#B5302A">Ad-hoc</text>
  <text x="51" y="343" text-anchor="middle" font-family="Inter,-apple-system,sans-serif" font-size="14" fill="#C0392B">&#x2193;</text>

  <line x1="51" y1="352" x2="51" y2="540" stroke="#CBD5E1" stroke-width="1.2" stroke-dasharray="3 3"/>

  <rect x="12" y="545" width="78" height="74" rx="10" fill="#D4E8FA" stroke="#6AAAD8" stroke-width="1" opacity=".85"/>
  <text x="51" y="573" text-anchor="middle" font-family="Inter,-apple-system,sans-serif" font-size="14" font-weight="700" fill="#1D4E7E">Evolving</text>
  <text x="51" y="592" text-anchor="middle" font-family="Inter,-apple-system,sans-serif" font-size="14" font-weight="700" fill="#1D4E7E">Asset</text>
  <text x="51" y="611" text-anchor="middle" font-family="Inter,-apple-system,sans-serif" font-size="12" fill="#2B6FAC">&#x2191; upgrade</text>

  <!-- ===== BOTTOM TAGLINE ===== -->
  <text x="430" y="860" text-anchor="middle" font-family="Inter,-apple-system,sans-serif" font-size="16" fill="#64748B">Hermes writes skills during tasks &#xB7; SkillClaw decides which survive, improve, and return stronger</text>
</svg>